<mxfile host="app.diagrams.net" modified="2024-06-24T06:03:51.768Z" agent="Mozilla/5.0 (Macintosh; Intel Mac OS X 10_15_7) AppleWebKit/537.36 (KHTML, like Gecko) Chrome/125.0.0.0 Safari/537.36" version="24.4.4" etag="eK7gm4h3jEGVPbQD6lsX" type="github">
  <diagram name="第 1 页" id="t-eKe7Wkgp-TsJWkju5s">
    <mxGraphModel>
      <root>
        <mxCell id="0" />
        <mxCell id="1" parent="0" />
      </root>
    </mxGraphModel>
  </diagram>
</mxfile>
